<svg width="310" height="247" fill="none" xmlns="http://www.w3.org/2000/svg"><g filter="url(#a)" clip-rule="evenodd"><path fill-rule="evenodd" d="M47 31a5 5 0 0 1 5-5h30.833a5 5 0 0 1 4.942 4.24l2.51 16.316H237a5 5 0 0 1 4.808 6.373l-20.556 71.945a5 5 0 0 1-4.808 3.626H102.892l4.786 31.111h119.044a5 5 0 1 1 0 10H103.389a5 5 0 0 1-4.942-4.24l-6.19-40.233a4.992 4.992 0 0 1-.272-1.772L81.189 53.194a4.993 4.993 0 0 1-.273-1.774L78.544 36H52a5 5 0 0 1-5-5Zm44.824 25.556 9.53 61.944h111.319l17.698-61.944H91.824Zm11.565 143.888a5.278 5.278 0 1 0 0 10.556 5.278 5.278 0 0 0 0-10.556Zm-15.278 5.278c0-8.438 6.84-15.278 15.278-15.278 8.437 0 15.278 6.84 15.278 15.278S111.826 221 103.389 221c-8.438 0-15.278-6.84-15.278-15.278Zm128.333-5.278a5.277 5.277 0 0 0-5.277 5.278 5.277 5.277 0 1 0 10.555 0 5.278 5.278 0 0 0-5.278-5.278Zm-15.277 5.278c0-8.438 6.84-15.278 15.277-15.278 8.438 0 15.278 6.84 15.278 15.278S224.882 221 216.444 221c-8.437 0-15.277-6.84-15.277-15.278Z" fill="#010021"/><path d="M47 31a5 5 0 0 1 5-5h30.833a5 5 0 0 1 4.942 4.24l2.51 16.316H237a5 5 0 0 1 4.808 6.373l-20.556 71.945a5 5 0 0 1-4.808 3.626H102.892l4.786 31.111h119.044a5 5 0 1 1 0 10H103.389a5 5 0 0 1-4.942-4.24l-6.19-40.233a4.992 4.992 0 0 1-.272-1.772L81.189 53.194a4.993 4.993 0 0 1-.273-1.774L78.544 36H52a5 5 0 0 1-5-5Zm44.824 25.556 9.53 61.944h111.319l17.698-61.944H91.824Zm11.565 143.888a5.278 5.278 0 1 0 0 10.556 5.278 5.278 0 0 0 0-10.556Zm-15.278 5.278c0-8.438 6.84-15.278 15.278-15.278 8.437 0 15.278 6.84 15.278 15.278S111.826 221 103.389 221c-8.438 0-15.278-6.84-15.278-15.278Zm128.333-5.278a5.277 5.277 0 0 0-5.277 5.278 5.277 5.277 0 1 0 10.555 0 5.278 5.278 0 0 0-5.278-5.278Zm-15.277 5.278c0-8.438 6.84-15.278 15.277-15.278 8.438 0 15.278 6.84 15.278 15.278S224.882 221 216.444 221c-8.437 0-15.277-6.84-15.277-15.278Z" stroke="#fff" stroke-opacity=".4" stroke-width="2" stroke-linecap="round" stroke-linejoin="round"/></g><path fill-rule="evenodd" clip-rule="evenodd" d="M47 31a5 5 0 0 1 5-5h30.833a5 5 0 0 1 4.942 4.24l2.51 16.316H237a5 5 0 0 1 4.808 6.373l-20.556 71.945a5 5 0 0 1-4.808 3.626H102.892l4.786 31.111h119.044a5 5 0 1 1 0 10H103.389a5 5 0 0 1-4.942-4.24l-6.19-40.233a4.992 4.992 0 0 1-.272-1.772L81.189 53.194a4.993 4.993 0 0 1-.273-1.774L78.544 36H52a5 5 0 0 1-5-5Zm44.824 25.556 9.53 61.944h111.319l17.698-61.944H91.824Zm11.565 143.888a5.278 5.278 0 1 0 0 10.556 5.278 5.278 0 0 0 0-10.556Zm-15.278 5.278c0-8.438 6.84-15.278 15.278-15.278 8.437 0 15.278 6.84 15.278 15.278S111.826 221 103.389 221c-8.438 0-15.278-6.84-15.278-15.278Zm128.333-5.278a5.277 5.277 0 0 0-5.277 5.278 5.277 5.277 0 1 0 10.555 0 5.278 5.278 0 0 0-5.278-5.278Zm-15.277 5.278c0-8.438 6.84-15.278 15.277-15.278 8.438 0 15.278 6.84 15.278 15.278S224.882 221 216.444 221c-8.437 0-15.277-6.84-15.277-15.278Z" fill="#010021" stroke="#fff" stroke-opacity=".4" stroke-width="2" stroke-linecap="round" stroke-linejoin="round"/><defs><filter id="a" x="21" y="0" width="247" height="247" filterUnits="userSpaceOnUse" color-interpolation-filters="sRGB"><feFlood flood-opacity="0" result="BackgroundImageFix"/><feBlend in="SourceGraphic" in2="BackgroundImageFix" result="shape"/><feGaussianBlur stdDeviation="12.5" result="effect1_foregroundBlur_15_74"/></filter></defs></svg>