<svg width="310" height="244" fill="none" xmlns="http://www.w3.org/2000/svg"><g filter="url(#a)"><path fill-rule="evenodd" clip-rule="evenodd" d="M159.366 169.696v-9.892a21.592 21.592 0 0 0 14.593-6.464c3.917-3.917 6.072-9.206 6.268-14.691 0-10.283-7.15-16.747-18.608-21.252l-2.253-.882V96.242a18.487 18.487 0 0 1 8.227 5.974c.489.588 1.175 1.078 1.861 1.47.685.391 1.567.489 2.35.489.784 0 1.567-.196 2.253-.489a6.267 6.267 0 0 0 1.86-1.274 5.214 5.214 0 0 0 1.274-1.958c.293-.686.391-1.47.391-2.253 0-1.371-.587-2.644-1.469-3.624-1.958-2.742-4.407-5.19-7.345-6.953-2.84-1.763-6.072-3.036-9.5-3.526v-9.794c0-1.567-.686-3.134-1.763-4.31-1.175-1.174-2.644-1.762-4.309-1.762s-3.134.686-4.309 1.763c-1.176 1.175-1.763 2.644-1.763 4.31v9.89c-4.897.589-9.304 2.841-12.634 6.465-3.33 3.624-5.191 8.227-5.387 13.123 0 9.109 6.072 16.16 18.021 20.861v22.918c-4.505-1.567-8.423-4.407-11.263-8.227-.49-.588-1.078-1.077-1.861-1.371-.686-.294-1.469-.49-2.253-.49-.783 0-1.567 0-2.252.392-.686.294-1.371.686-1.959 1.273a5.738 5.738 0 0 0-1.273 1.861c-.294.686-.49 1.469-.49 2.253 0 1.371.49 2.742 1.371 3.819 2.351 3.33 5.289 6.17 8.717 8.325 3.428 2.155 7.247 3.624 11.263 4.211v10.186c0 1.567.685 3.134 1.763 4.309 1.175 1.175 2.644 1.763 4.309 1.763s3.134-.588 4.309-1.763c1.175-1.175 1.763-2.644 1.763-4.309l.098-.098Zm-12.144-73.16v14.691c-1.469-.686-2.743-1.763-3.526-3.036-.882-1.371-1.273-2.938-1.273-4.505 0-1.567.391-3.037 1.273-4.31a7.207 7.207 0 0 1 3.624-2.742l-.098-.098Zm12.144 33.397c4.701 2.057 7.639 4.701 7.639 9.01 0 2.155-.783 4.31-2.155 5.975a8.594 8.594 0 0 1-5.484 3.036v-18.021Z" fill="#010021"/><path fill-rule="evenodd" clip-rule="evenodd" d="M153 27c-52.495 0-95 42.505-95 95s42.505 95 95 95 95-42.505 95-95-42.505-95-95-95Zm-85.5 95c0-47.206 38.294-85.5 85.5-85.5s85.5 38.294 85.5 85.5-38.294 85.5-85.5 85.5-85.5-38.294-85.5-85.5Z" fill="#010021"/><path d="m160.257 170.219.109-.109v-9.362a22.613 22.613 0 0 0 14.305-6.705c4.104-4.108 6.351-9.64 6.555-15.358l.001-.018v-.018c0-5.403-1.889-9.83-5.275-13.473-3.361-3.618-8.166-6.429-13.968-8.71h-.001l-1.617-.633V97.734a17.506 17.506 0 0 1 6.44 5.1l.009.012.01.011c.598.717 1.398 1.277 2.132 1.697.918.524 2.016.621 2.847.621.944 0 1.862-.234 2.647-.57a7.283 7.283 0 0 0 2.174-1.486 6.21 6.21 0 0 0 1.494-2.293c.36-.852.463-1.777.463-2.625 0-1.64-.692-3.126-1.687-4.25-2.016-2.811-4.548-5.344-7.606-7.181-2.706-1.678-5.765-2.934-9.021-3.523v-8.943c0-1.85-.803-3.651-2.026-4.985l-.014-.016-.016-.015c-1.369-1.37-3.095-2.056-5.016-2.056-1.956 0-3.658.81-4.985 2.026l-.016.014-.016.016c-1.369 1.369-2.055 3.095-2.055 5.016v9.023a21.267 21.267 0 0 0-12.371 6.656c-3.493 3.802-5.444 8.632-5.649 13.761l-.001.019v.02c0 9.518 6.283 16.756 18.021 21.538v20.788a22.602 22.602 0 0 1-9.461-7.371l-.016-.022-.018-.021c-.566-.679-1.282-1.289-2.256-1.659-.78-.332-1.69-.562-2.626-.562h-.082c-.714-.001-1.708-.002-2.613.494-.743.323-1.532.773-2.223 1.464a6.738 6.738 0 0 0-1.485 2.174c-.336.784-.571 1.702-.571 2.647 0 1.591.562 3.174 1.574 4.424 2.419 3.42 5.446 6.344 8.982 8.567 3.294 2.07 6.946 3.532 10.795 4.215v9.335c0 1.85.803 3.651 2.025 4.985l.015.016.015.015c1.37 1.369 3.096 2.056 5.017 2.056 1.921 0 3.647-.687 5.016-2.056 1.268-1.267 1.95-2.84 2.045-4.591Zm-15.739-70.273a6.309 6.309 0 0 1 1.704-1.672v11.193c-.689-.519-1.265-1.135-1.675-1.8l-.005-.009-.005-.008c-.765-1.189-1.114-2.563-1.114-3.964 0-1.396.346-2.659 1.095-3.74Zm15.848 46.775v-15.212c1.62.826 2.909 1.729 3.842 2.756 1.162 1.28 1.797 2.782 1.797 4.678 0 1.92-.701 3.85-1.926 5.339a7.558 7.558 0 0 1-3.713 2.439ZM153 26c-53.047 0-96 42.953-96 96s42.953 96 96 96 96-42.953 96-96-42.953-96-96-96Zm-84.5 96c0-46.654 37.846-84.5 84.5-84.5s84.5 37.846 84.5 84.5-37.846 84.5-84.5 84.5-84.5-37.846-84.5-84.5Z" stroke="#fff" stroke-opacity=".4" stroke-width="2"/></g><path fill-rule="evenodd" clip-rule="evenodd" d="M159.366 169.696v-9.892a21.592 21.592 0 0 0 14.593-6.464c3.917-3.917 6.072-9.206 6.268-14.691 0-10.283-7.15-16.747-18.608-21.252l-2.253-.882V96.242a18.487 18.487 0 0 1 8.227 5.974c.489.588 1.175 1.078 1.861 1.47.685.391 1.567.489 2.35.489.784 0 1.567-.196 2.253-.489a6.267 6.267 0 0 0 1.86-1.274 5.214 5.214 0 0 0 1.274-1.958c.293-.686.391-1.47.391-2.253 0-1.371-.587-2.644-1.469-3.624-1.958-2.742-4.407-5.19-7.345-6.953-2.84-1.763-6.072-3.036-9.5-3.526v-9.794c0-1.567-.686-3.134-1.763-4.31-1.175-1.174-2.644-1.762-4.309-1.762s-3.134.686-4.309 1.763c-1.176 1.175-1.763 2.644-1.763 4.31v9.89c-4.897.589-9.304 2.841-12.634 6.465-3.33 3.624-5.191 8.227-5.387 13.123 0 9.109 6.072 16.16 18.021 20.861v22.918c-4.505-1.567-8.423-4.407-11.263-8.227-.49-.588-1.078-1.077-1.861-1.371-.686-.294-1.469-.49-2.253-.49-.783 0-1.567 0-2.252.392-.686.294-1.371.686-1.959 1.273a5.738 5.738 0 0 0-1.273 1.861c-.294.686-.49 1.469-.49 2.253 0 1.371.49 2.742 1.371 3.819 2.351 3.33 5.289 6.17 8.717 8.325 3.428 2.155 7.247 3.624 11.263 4.211v10.186c0 1.567.685 3.134 1.763 4.309 1.175 1.175 2.644 1.763 4.309 1.763s3.134-.588 4.309-1.763c1.175-1.175 1.763-2.644 1.763-4.309l.098-.098Zm-12.144-73.16v14.691c-1.469-.686-2.743-1.763-3.526-3.036-.882-1.371-1.273-2.938-1.273-4.505 0-1.567.391-3.037 1.273-4.31a7.207 7.207 0 0 1 3.624-2.742l-.098-.098Zm12.144 33.397c4.701 2.057 7.639 4.701 7.639 9.01 0 2.155-.783 4.31-2.155 5.975a8.594 8.594 0 0 1-5.484 3.036v-18.021Z" fill="#010021"/><path fill-rule="evenodd" clip-rule="evenodd" d="M153 27c-52.495 0-95 42.505-95 95s42.505 95 95 95 95-42.505 95-95-42.505-95-95-95Zm-85.5 95c0-47.206 38.294-85.5 85.5-85.5s85.5 38.294 85.5 85.5-38.294 85.5-85.5 85.5-85.5-38.294-85.5-85.5Z" fill="#010021"/><path d="m160.257 170.219.109-.109v-9.362a22.613 22.613 0 0 0 14.305-6.705c4.104-4.108 6.351-9.64 6.555-15.358l.001-.018v-.018c0-5.403-1.889-9.83-5.275-13.473-3.361-3.618-8.166-6.429-13.968-8.71h-.001l-1.617-.633V97.734a17.506 17.506 0 0 1 6.44 5.1l.009.012.01.011c.598.717 1.398 1.277 2.132 1.697.918.524 2.016.621 2.847.621.944 0 1.862-.234 2.647-.57a7.283 7.283 0 0 0 2.174-1.486 6.21 6.21 0 0 0 1.494-2.293c.36-.852.463-1.777.463-2.625 0-1.64-.692-3.126-1.687-4.25-2.016-2.811-4.548-5.344-7.606-7.181-2.706-1.678-5.765-2.934-9.021-3.523v-8.943c0-1.85-.803-3.651-2.026-4.985l-.014-.016-.016-.015c-1.369-1.37-3.095-2.056-5.016-2.056-1.956 0-3.658.81-4.985 2.026l-.016.014-.016.016c-1.369 1.369-2.055 3.095-2.055 5.016v9.023a21.267 21.267 0 0 0-12.371 6.656c-3.493 3.802-5.444 8.632-5.649 13.761l-.001.019v.02c0 9.518 6.283 16.756 18.021 21.538v20.788a22.602 22.602 0 0 1-9.461-7.371l-.016-.022-.018-.021c-.566-.679-1.282-1.289-2.256-1.659-.78-.332-1.69-.562-2.626-.562h-.082c-.714-.001-1.708-.002-2.613.494-.743.323-1.532.773-2.223 1.464a6.738 6.738 0 0 0-1.485 2.174c-.336.784-.571 1.702-.571 2.647 0 1.591.562 3.174 1.574 4.424 2.419 3.42 5.446 6.344 8.982 8.567 3.294 2.07 6.946 3.532 10.795 4.215v9.335c0 1.85.803 3.651 2.025 4.985l.015.016.015.015c1.37 1.369 3.096 2.056 5.017 2.056 1.921 0 3.647-.687 5.016-2.056 1.268-1.267 1.95-2.84 2.045-4.591Zm-15.739-70.273a6.309 6.309 0 0 1 1.704-1.672v11.193c-.689-.519-1.265-1.135-1.675-1.8l-.005-.009-.005-.008c-.765-1.189-1.114-2.563-1.114-3.964 0-1.396.346-2.659 1.095-3.74Zm15.848 46.775v-15.212c1.62.826 2.909 1.729 3.842 2.756 1.162 1.28 1.797 2.782 1.797 4.678 0 1.92-.701 3.85-1.926 5.339a7.558 7.558 0 0 1-3.713 2.439ZM153 26c-53.047 0-96 42.953-96 96s42.953 96 96 96 96-42.953 96-96-42.953-96-96-96Zm-84.5 96c0-46.654 37.846-84.5 84.5-84.5s84.5 37.846 84.5 84.5-37.846 84.5-84.5 84.5-84.5-37.846-84.5-84.5Z" stroke="#fff" stroke-opacity=".4" stroke-width="2"/><defs><filter id="a" x="31" y="0" width="244" height="244" filterUnits="userSpaceOnUse" color-interpolation-filters="sRGB"><feFlood flood-opacity="0" result="BackgroundImageFix"/><feBlend in="SourceGraphic" in2="BackgroundImageFix" result="shape"/><feGaussianBlur stdDeviation="12.5" result="effect1_foregroundBlur_15_82"/></filter></defs></svg>