<svg width="310" height="241" fill="none" xmlns="http://www.w3.org/2000/svg"><g filter="url(#a)"><path d="M111.1 219h87.182l-.1.2h1.925c10.903 0 16.734 0 21.951-2.711 4.686-2.396 8.337-6.048 10.732-10.734l.001-.001c2.709-5.314 2.709-11.142 2.709-21.964v-66.511c4.388-.096 7.309-.268 10.14-1.681 2.916-1.406 5.161-3.772 6.645-6.633 1.716-3.22 1.715-6.654 1.715-12.23v-17.17c0-5.569.001-9.001-1.708-12.217-1.406-2.91-3.769-5.15-6.626-6.633-3.221-1.716-6.654-1.715-12.231-1.715h-24.376c.902-1.443 1.646-2.895 2.201-4.529.755-2.226 1.14-4.739 1.14-7.971 0-6.557-2.499-12.712-7.089-17.303-.948-.971-1.351-1.822-1.693-2.624l-.095-.226c-.309-.738-.673-1.606-1.482-2.304-.897-.773-2.221-1.26-4.31-1.573-2.103-.314-5.119-.47-9.531-.47-17.235 0-27.243 13.242-32.785 24.447C149.957 35.06 139.948 21.8 122.7 21.8c-6.367 0-12.626 2.607-17.115 7.2-4.601 4.706-7.085 12.166-7.085 17.3a24.74 24.74 0 0 0 3.378 12.5H77.465c-5.569 0-9.001 0-12.217 1.708-2.91 1.406-5.15 3.77-6.633 6.627-1.715 3.22-1.715 6.653-1.715 12.23v17.17c0 5.569 0 9.001 1.708 12.217 1.406 2.91 3.77 5.15 6.626 6.633 2.844 1.521 5.777 1.696 10.166 1.713v66.508c0 10.904 0 16.735 2.711 21.952 2.396 4.686 6.048 8.337 10.734 10.732v.001C94.162 219 99.989 219 110.81 219h.29Zm105.553-13.395-.012.007c-1.258.65-3.084 1.017-5.846 1.203-2.746.184-6.281.185-10.895.185h-38.4v-89.8h62v66.2c0 4.614-.001 8.149-.185 10.895-.186 2.762-.553 4.588-1.203 5.846l-.006.012a11.974 11.974 0 0 1-5.453 5.452Zm-127.758-5.452-.007-.012c-.65-1.258-1.017-3.084-1.203-5.846-.184-2.746-.185-6.281-.185-10.895v-66.2h62V207h-38.4c-4.614 0-8.149-.001-10.895-.185-2.762-.186-4.588-.553-5.846-1.203l-.012-.006a11.974 11.974 0 0 1-5.453-5.453Zm151.358-95.347-.02.009-.019.011c-.065.036-.265.109-.686.175-.398.062-.911.107-1.539.138-1.258.061-2.88.061-4.789.061h-71.7V70.7h71.7c1.909 0 3.531 0 4.789.061.628.03 1.141.076 1.539.138.392.061.592.129.671.167.717.452 1.229.926 1.507 1.481l.009.02.011.019c.036.065.109.265.175.686.063.398.107.91.138 1.539.061 1.258.061 2.88.061 4.789v16.7c0 1.91 0 3.531-.061 4.789a15.011 15.011 0 0 1-.138 1.539c-.061.392-.129.592-.167.671-.452.717-.926 1.229-1.481 1.507ZM70.747 71.394l.02-.01.019-.01c.065-.036.265-.11.686-.175.398-.063.91-.107 1.539-.138 1.032-.05 2.31-.059 3.789-.06v.299h72.7v34.2H77.8c-1.91 0-3.531 0-4.789-.061a15.285 15.285 0 0 1-1.539-.138c-.392-.061-.592-.129-.67-.167-.718-.452-1.23-.926-1.508-1.481l-.01-.02-.01-.019c-.036-.065-.11-.265-.175-.686a15.056 15.056 0 0 1-.138-1.539c-.06-1.258-.061-2.88-.061-4.789V79.9c0-1.91 0-3.531.061-4.789.03-.628.076-1.141.138-1.539.061-.392.129-.592.167-.67.452-.718.926-1.23 1.481-1.508ZM188.2 59h-24.809c1.584-4.576 4.125-10.511 7.892-15.456C175.417 38.117 180.931 34 188.2 34c3.227 0 6.275 1.289 8.593 3.607 2.304 2.304 3.607 5.546 3.607 8.893 0 3.347-1.303 6.589-3.607 8.893C194.475 57.71 191.427 59 188.2 59Zm-40.591 0H122.8c-3.227 0-6.275-1.289-8.593-3.607-2.304-2.304-3.607-5.546-3.607-8.893 0-3.347 1.303-6.589 3.607-8.893.436-.436.704-.928.771-1.47.065-.526-.076-.977-.222-1.306a5.279 5.279 0 0 0-.231-.45 8.27 8.27 0 0 1 .797-.13c1.332-.163 3.626-.251 7.478-.251 7.27 0 12.783 4.117 16.917 9.544 3.767 4.945 6.308 10.88 7.892 15.456Z" stroke="#fff" stroke-opacity=".4" stroke-width="2"/></g><path d="M199.9 218h-88.8c-11.1 0-16.7 0-21.8-2.6-4.5-2.3-8-5.8-10.3-10.3-2.6-5-2.6-10.6-2.6-21.8v-67.2c-5 0-7.9-.1-10.7-1.6-2.7-1.4-4.9-3.5-6.2-6.2-1.6-3-1.6-6.2-1.6-12V79.6c0-5.8 0-9 1.6-12 1.4-2.7 3.5-4.9 6.2-6.2 3-1.6 6.2-1.6 12-1.6h26c-2.7-3.9-4.2-8.6-4.2-13.5s2.4-12.1 6.8-16.6c4.3-4.4 10.3-6.9 16.4-6.9 17.6 0 27.5 14.3 32.7 26 5.3-11.5 15.2-25.8 32.8-25.8 17.6 0 12.1 2.5 16.4 6.9 4.4 4.4 6.8 10.3 6.8 16.6 0 6.3-1.5 9.6-4.2 13.5h26c5.8 0 9 0 12 1.6 2.7 1.4 4.9 3.5 6.2 6.2 1.6 3 1.6 6.2 1.6 12v16.7c0 5.8 0 9-1.6 12-1.4 2.7-3.5 4.9-6.2 6.2-2.8 1.4-5.7 1.5-10.7 1.6v67.2c0 11.1 0 16.7-2.6 21.8-2.3 4.5-5.8 8-10.3 10.3-5 2.6-10.6 2.6-21.8 2.6l.1-.2Zm-39.4-10h39.4c9.2 0 14.3 0 17.2-1.5 2.6-1.3 4.6-3.3 5.9-5.9 1.5-2.9 1.5-8 1.5-17.2v-67.2h-64V208Zm-74-91.8v67.2c0 9.2 0 14.3 1.5 17.2 1.3 2.6 3.3 4.6 5.9 5.9 2.9 1.5 8 1.5 17.2 1.5h39.4v-91.8h-64Zm74-10h72.7c3.8 0 6.6 0 7.5-.5.8-.4 1.4-1.1 1.9-1.9.5-.9.5-3.7.5-7.5V79.6c0-3.8 0-6.6-.5-7.5-.4-.8-1.1-1.4-1.9-1.9-.9-.5-3.7-.5-7.5-.5h-72.7v36.5ZM77.8 70c-3.8 0-6.6 0-7.5.5-.8.4-1.4 1.1-1.9 1.9-.5.9-.5 3.7-.5 7.5v16.7c0 3.8 0 6.6.5 7.5.4.8 1.1 1.4 1.9 1.9.9.5 3.7.5 7.5.5h72.7V70.3H77.8V70ZM162 60h26.2c3.5 0 6.8-1.4 9.3-3.9 2.5-2.5 3.9-6 3.9-9.6 0-3.6-1.4-7.1-3.9-9.6s-5.8-3.9-9.3-3.9c-15.4 0-23.1 17.5-26.2 27Zm-39.2 0H149c-3.1-9.5-10.8-27-26.2-27-15.4 0-6.8 1.4-9.3 3.9-2.5 2.5-3.9 6-3.9 9.6 0 3.6 1.4 7.1 3.9 9.6s5.8 3.9 9.3 3.9Z" fill="#010021"/><path d="M111.1 219h87.182l-.1.2h1.925c10.903 0 16.734 0 21.951-2.711 4.686-2.396 8.337-6.048 10.732-10.734l.001-.001c2.709-5.314 2.709-11.142 2.709-21.964v-66.511c4.388-.096 7.309-.268 10.14-1.681 2.916-1.406 5.161-3.772 6.645-6.633 1.716-3.22 1.715-6.654 1.715-12.23v-17.17c0-5.569.001-9.001-1.708-12.217-1.406-2.91-3.769-5.15-6.626-6.633-3.221-1.716-6.654-1.715-12.231-1.715h-24.376c.902-1.443 1.646-2.895 2.201-4.529.755-2.226 1.14-4.739 1.14-7.971 0-6.557-2.499-12.712-7.089-17.303-.948-.971-1.351-1.822-1.693-2.624l-.095-.226c-.309-.738-.673-1.606-1.482-2.304-.897-.773-2.221-1.26-4.31-1.573-2.103-.314-5.119-.47-9.531-.47-17.235 0-27.243 13.242-32.785 24.447C149.957 35.06 139.948 21.8 122.7 21.8c-6.367 0-12.626 2.607-17.115 7.2-4.601 4.706-7.085 12.166-7.085 17.3a24.74 24.74 0 0 0 3.378 12.5H77.465c-5.569 0-9.001 0-12.217 1.708-2.91 1.406-5.15 3.77-6.633 6.627-1.715 3.22-1.715 6.653-1.715 12.23v17.17c0 5.569 0 9.001 1.708 12.217 1.406 2.91 3.77 5.15 6.626 6.633 2.844 1.521 5.777 1.696 10.166 1.713v66.508c0 10.904 0 16.735 2.711 21.952 2.396 4.686 6.048 8.337 10.734 10.732v.001C94.162 219 99.989 219 110.81 219h.29Zm105.553-13.395-.012.007c-1.258.65-3.084 1.017-5.846 1.203-2.746.184-6.281.185-10.895.185h-38.4v-89.8h62v66.2c0 4.614-.001 8.149-.185 10.895-.186 2.762-.553 4.588-1.203 5.846l-.006.012a11.974 11.974 0 0 1-5.453 5.452Zm-127.758-5.452-.007-.012c-.65-1.258-1.017-3.084-1.203-5.846-.184-2.746-.185-6.281-.185-10.895v-66.2h62V207h-38.4c-4.614 0-8.149-.001-10.895-.185-2.762-.186-4.588-.553-5.846-1.203l-.012-.006a11.974 11.974 0 0 1-5.453-5.453Zm151.358-95.347-.02.009-.019.011c-.065.036-.265.109-.686.175-.398.062-.911.107-1.539.138-1.258.061-2.88.061-4.789.061h-71.7V70.7h71.7c1.909 0 3.531 0 4.789.061.628.03 1.141.076 1.539.138.392.061.592.129.671.167.717.452 1.229.926 1.507 1.481l.009.02.011.019c.036.065.109.265.175.686.063.398.107.91.138 1.539.061 1.258.061 2.88.061 4.789v16.7c0 1.91 0 3.531-.061 4.789a15.011 15.011 0 0 1-.138 1.539c-.061.392-.129.592-.167.671-.452.717-.926 1.229-1.481 1.507ZM70.747 71.394l.02-.01.019-.01c.065-.036.265-.11.686-.175.398-.063.91-.107 1.539-.138 1.032-.05 2.31-.059 3.789-.06v.299h72.7v34.2H77.8c-1.91 0-3.531 0-4.789-.061a15.285 15.285 0 0 1-1.539-.138c-.392-.061-.592-.129-.67-.167-.718-.452-1.23-.926-1.508-1.481l-.01-.02-.01-.019c-.036-.065-.11-.265-.175-.686a15.056 15.056 0 0 1-.138-1.539c-.06-1.258-.061-2.88-.061-4.789V79.9c0-1.91 0-3.531.061-4.789.03-.628.076-1.141.138-1.539.061-.392.129-.592.167-.67.452-.718.926-1.23 1.481-1.508ZM188.2 59h-24.809c1.584-4.576 4.125-10.511 7.892-15.456C175.417 38.117 180.931 34 188.2 34c3.227 0 6.275 1.289 8.593 3.607 2.304 2.304 3.607 5.546 3.607 8.893 0 3.347-1.303 6.589-3.607 8.893C194.475 57.71 191.427 59 188.2 59Zm-40.591 0H122.8c-3.227 0-6.275-1.289-8.593-3.607-2.304-2.304-3.607-5.546-3.607-8.893 0-3.347 1.303-6.589 3.607-8.893.436-.436.704-.928.771-1.47.065-.526-.076-.977-.222-1.306a5.279 5.279 0 0 0-.231-.45 8.27 8.27 0 0 1 .797-.13c1.332-.163 3.626-.251 7.478-.251 7.27 0 12.783 4.117 16.917 9.544 3.767 4.945 6.308 10.88 7.892 15.456Z" stroke="#fff" stroke-opacity=".4" stroke-width="2"/><defs><filter id="a" x="35.9" y=".8" width="239.1" height="239.4" filterUnits="userSpaceOnUse" color-interpolation-filters="sRGB"><feFlood flood-opacity="0" result="BackgroundImageFix"/><feBlend in="SourceGraphic" in2="BackgroundImageFix" result="shape"/><feGaussianBlur stdDeviation="10" result="effect1_foregroundBlur_15_90"/></filter></defs></svg>