<svg width="1216" height="726" fill="none" xmlns="http://www.w3.org/2000/svg"><g clip-path="url(#a)"><mask id="c" style="mask-type:alpha" maskUnits="userSpaceOnUse" x="0" y="0" width="1216" height="726"><path d="M1216 0H0v725.8h1216V0Z" fill="url(#b)"/></mask><g mask="url(#c)" stroke="#fff"><path d="m717.133 231.367 42.666-24.634 42.666 24.634v49.266l-42.666 24.634-42.666-24.634v-49.266Zm43.299 75 42.667-24.634 42.666 24.634v49.266l-42.666 24.634-42.667-24.634v-49.266Zm43.3-75 42.666-24.634 42.667 24.634v49.266l-42.667 24.634-42.666-24.634v-49.266Zm43.3 75 42.666-24.634 42.667 24.634v49.266l-42.667 24.634-42.666-24.634v-49.266Zm43.3 75 42.666-24.634 42.666 24.634v49.266l-42.666 24.634-42.666-24.634v-49.266Zm43.3-75 42.666-24.634 42.662 24.634v49.266l-42.662 24.634-42.666-24.634v-49.266Zm-346.399 0 42.666-24.634 42.667 24.634v49.266l-42.667 24.634-42.666-24.634v-49.266Zm43.3 75 42.666-24.634 42.666 24.634v49.266l-42.666 24.634-42.666-24.634v-49.266Zm43.3-75 42.666-24.634 42.666 24.634v49.266l-42.666 24.634-42.666-24.634v-49.266Zm43.3 75 42.666-24.634 42.666 24.634v49.266l-42.666 24.634-42.666-24.634v-49.266Zm43.299 75 42.667-24.634 42.666 24.634v49.266l-42.666 24.634-42.667-24.634v-49.266Zm43.3-75 42.666-24.634 42.667 24.634v49.266l-42.667 24.634-42.666-24.634v-49.266Zm173.199 0 42.669-24.634 42.66 24.634v49.266l-42.66 24.634-42.669-24.634v-49.266Zm43.299 75 42.67-24.634 42.66 24.634v49.266l-42.66 24.634-42.67-24.634v-49.266Zm43.3-75 42.67-24.634 42.66 24.634v49.266l-42.66 24.634-42.67-24.634v-49.266Zm43.3 75 42.67-24.634 42.66 24.634v49.266l-42.66 24.634-42.67-24.634v-49.266Zm43.3 75 42.67-24.634 42.66 24.634v49.266l-42.66 24.634-42.67-24.634v-49.266Zm43.3-75 42.67-24.634 42.66 24.634v49.266l-42.66 24.634-42.67-24.634v-49.266Z"/><path d="m847.032 456.367 42.666-24.634 42.667 24.634v49.266l-42.667 24.634-42.666-24.634v-49.266Z" fill="#fff" fill-opacity=".25"/><path d="m890.332 531.367 42.666-24.634 42.666 24.634v49.266l-42.666 24.634-42.666-24.634v-49.266Zm43.3-75 42.666-24.634 42.662 24.634v49.266l-42.662 24.634-42.666-24.634v-49.266Zm43.299 75 42.669-24.634 42.66 24.634v49.266l-42.66 24.634-42.669-24.634v-49.266Zm43.299 75 42.67-24.634 42.66 24.634v49.266l-42.66 24.634-42.67-24.634v-49.266Zm43.3-75 42.67-24.634 42.66 24.634v49.266l-42.66 24.634-42.67-24.634v-49.266Zm-86.599-450 42.669-24.634 42.66 24.634v49.266l-42.66 24.634-42.669-24.634V81.367Zm43.299 75 42.67-24.634 42.66 24.634v49.266l-42.66 24.634-42.67-24.634v-49.266Zm43.3-75 42.67-24.634 42.66 24.634v49.266l-42.66 24.634-42.67-24.634V81.367Zm43.3 75 42.67-24.634 42.66 24.634v49.266l-42.66 24.634-42.67-24.634v-49.266Zm43.3 75 42.67-24.634 42.66 24.634v49.266l-42.66 24.634-42.67-24.634v-49.266Zm43.3-75 42.67-24.634 42.66 24.634v49.266l-42.66 24.634-42.67-24.634v-49.266Zm-346.398 0 42.666-24.634 42.667 24.634v49.266l-42.667 24.634-42.666-24.634v-49.266Zm43.3 75 42.666-24.634 42.666 24.634v49.266l-42.666 24.634-42.666-24.634v-49.266Zm43.3-75 42.666-24.634 42.662 24.634v49.266l-42.662 24.634-42.666-24.634v-49.266Zm43.299 75 42.669-24.634 42.66 24.634v49.266l-42.66 24.634-42.669-24.634v-49.266Zm43.299 75 42.67-24.634 42.66 24.634v49.266l-42.66 24.634-42.67-24.634v-49.266Zm43.3-75 42.67-24.634 42.66 24.634v49.266l-42.66 24.634-42.67-24.634v-49.266Zm43.3 75 42.67-24.634 42.66 24.634v49.266l-42.66 24.634-42.67-24.634v-49.266Zm43.3 75 42.67-24.634 42.66 24.634v49.266l-42.66 24.634-42.67-24.634v-49.266Zm43.3-75 42.67-24.634 42.66 24.634v49.266l-42.66 24.634-42.67-24.634v-49.266Zm-952.907-300 42.688-24.634 42.688 24.634v49.266l-42.688 24.634-42.688-24.634V6.367Zm86.644 0 42.688-24.634 42.688 24.634v49.266l-42.688 24.634-42.688-24.634V6.367Zm43.319 75 42.688-24.634 42.688 24.634v49.266l-42.688 24.634-42.688-24.634V81.367Zm43.324-75 42.688-24.634 42.688 24.634v49.266l-42.688 24.634-42.688-24.634V6.367Zm-346.573 0 42.688-24.634 42.688 24.634v49.266l-42.688 24.634-42.688-24.634V6.367Zm43.321 75 42.688-24.634 42.688 24.634v49.266l-42.688 24.634-42.688-24.634V81.367Zm43.322-75 42.688-24.634 42.688 24.634v49.266l-42.688 24.634-42.688-24.634V6.367Zm43.321 75 42.688-24.634 42.688 24.634v49.266l-42.688 24.634-42.688-24.634V81.367Zm43.322 75 42.688-24.634 42.688 24.634v49.266l-42.688 24.634-42.688-24.634v-49.266Zm43.322-75 42.688-24.634 42.688 24.634v49.266l-42.688 24.634-42.688-24.634V81.367Zm173.285 0 42.688-24.634 42.688 24.634v49.266l-42.688 24.634-42.688-24.634V81.367Zm43.322 75 42.688-24.634 42.688 24.634v49.266l-42.688 24.634-42.688-24.634v-49.266Zm43.323-75 42.688-24.634 42.688 24.634v49.266l-42.688 24.634-42.688-24.634V81.367Zm43.32 75 42.688-24.634 42.688 24.634v49.266l-42.688 24.634-42.688-24.634v-49.266Zm43.321 75 42.688-24.634 42.688 24.634v49.266l-42.688 24.634-42.688-24.634v-49.266Zm43.322-75 42.688-24.634 42.688 24.634v49.266l-42.688 24.634-42.688-24.634v-49.266Zm-346.571 0 42.688-24.634 42.688 24.634v49.266l-42.688 24.634-42.688-24.634v-49.266Zm43.319 75 42.688-24.634 42.688 24.634v49.266l-42.688 24.634-42.688-24.634v-49.266Zm43.324-75 42.688-24.634 42.688 24.634v49.266l-42.688 24.634-42.688-24.634v-49.266Zm43.32 75 42.688-24.634 42.688 24.634v49.266l-42.688 24.634-42.688-24.634v-49.266Zm43.322 75 42.688-24.634 42.688 24.634v49.266l-42.688 24.634-42.688-24.634v-49.266Z"/><path d="m543.775 231.367 42.688-24.634 42.688 24.634v49.266l-42.688 24.634-42.688-24.634v-49.266Z" fill="#fff" fill-opacity=".25"/><path d="m500.452 6.367 42.688-24.634 42.688 24.634v49.266L543.14 80.267l-42.688-24.634V6.367Zm259.931 0 42.688-24.634 42.688 24.634v49.266l-42.688 24.634-42.688-24.634V6.367Zm86.643 0 42.688-24.634 42.688 24.634v49.266l-42.688 24.634-42.688-24.634V6.367Z"/><path d="m890.348 81.367 42.688-24.634 42.688 24.634v49.266l-42.688 24.634-42.688-24.634V81.367Z" fill="#fff" fill-opacity=".25"/><path d="m933.667 6.367 42.688-24.634 42.685 24.634v49.266l-42.685 24.634-42.688-24.634V6.367Zm-346.572 0 42.688-24.634 42.688 24.634v49.266l-42.688 24.634-42.688-24.634V6.367Zm43.321 75 42.688-24.634 42.688 24.634v49.266l-42.688 24.634-42.688-24.634V81.367Zm43.322-75 42.688-24.634 42.688 24.634v49.266l-42.688 24.634-42.688-24.634V6.367Zm43.323 75 42.688-24.634 42.688 24.634v49.266l-42.688 24.634-42.688-24.634V81.367Zm43.322 75 42.688-24.634 42.688 24.634v49.266l-42.688 24.634-42.688-24.634v-49.266Zm43.319-75 42.688-24.634 42.688 24.634v49.266l-42.688 24.634-42.688-24.634V81.367Zm-476.469 525 42.666-24.634 42.667 24.634v49.266l-42.667 24.634-42.666-24.634v-49.266Zm43.3 75 42.666-24.634 42.666 24.634v49.266l-42.666 24.634-42.666-24.634v-49.266Zm43.3-75 42.666-24.634 42.666 24.634v49.266l-42.666 24.634-42.666-24.634v-49.266Zm43.3 75 42.666-24.634 42.666 24.634v49.266l-42.666 24.634-42.666-24.634v-49.266Zm86.599 0 42.666-24.634 42.667 24.634v49.266l-42.667 24.634-42.666-24.634v-49.266Zm-346.398 0L240 656.733l42.666 24.634v49.266L240 755.267l-42.666-24.634v-49.266Zm86.599 0 42.667-24.634 42.666 24.634v49.266L326.6 755.267l-42.667-24.634v-49.266Zm303.099-225 42.666-24.634 42.667 24.634v49.266l-42.667 24.634-42.666-24.634v-49.266Zm43.3 75 42.666-24.634 42.666 24.634v49.266l-42.666 24.634-42.666-24.634v-49.266Zm43.3-75 42.666-24.634 42.666 24.634v49.266l-42.666 24.634-42.666-24.634v-49.266Zm43.299 75 42.667-24.634 42.666 24.634v49.266l-42.666 24.634-42.667-24.634v-49.266Zm43.3 75 42.666-24.634 42.667 24.634v49.266l-42.667 24.634-42.666-24.634v-49.266Zm43.3-75 42.666-24.634 42.667 24.634v49.266l-42.667 24.634-42.666-24.634v-49.266Zm-346.398 0 42.666-24.634 42.666 24.634v49.266l-42.666 24.634-42.666-24.634v-49.266Zm43.299 75 42.667-24.634 42.666 24.634v49.266l-42.666 24.634-42.667-24.634v-49.266Zm43.3-75 42.666-24.634 42.667 24.634v49.266l-42.667 24.634-42.666-24.634v-49.266Zm43.3 75 42.666-24.634 42.667 24.634v49.266l-42.667 24.634-42.666-24.634v-49.266Zm43.3 75 42.666-24.634 42.666 24.634v49.266l-42.666 24.634-42.666-24.634v-49.266Zm43.3-75 42.666-24.634 42.666 24.634v49.266l-42.666 24.634-42.666-24.634v-49.266Zm173.199 0 42.666-24.634 42.666 24.634v49.266l-42.666 24.634-42.666-24.634v-49.266Zm43.3 75 42.666-24.634 42.666 24.634v49.266l-42.666 24.634-42.666-24.634v-49.266Zm43.299-75 42.667-24.634 42.663 24.634v49.266l-42.663 24.634-42.667-24.634v-49.266Zm43.3 75 42.67-24.634 42.66 24.634v49.266l-42.66 24.634-42.67-24.634v-49.266Zm86.6 0 42.67-24.634 42.66 24.634v49.266L1106 755.267l-42.67-24.634v-49.266Zm-346.399 0 42.667-24.634 42.666 24.634v49.266l-42.666 24.634-42.667-24.634v-49.266Zm86.6 0 42.666-24.634 42.667 24.634v49.266l-42.667 24.634-42.666-24.634v-49.266Zm-866.263-300 42.688-24.634 42.688 24.634v49.266l-42.688 24.634-42.688-24.634v-49.266Zm43.318 75 42.688-24.634 42.688 24.634v49.266l-42.688 24.634-42.688-24.634v-49.266Zm43.324-75 42.688-24.634 42.688 24.634v49.266l-42.688 24.634-42.688-24.634v-49.266Zm43.32 75 42.689-24.634 42.688 24.634v49.266l-42.688 24.634-42.688-24.634v-49.266Zm43.323 75 42.688-24.634 42.688 24.634v49.266l-42.688 24.634-42.688-24.634v-49.266Zm43.322-75 42.688-24.634 42.688 24.634v49.266l-42.688 24.634-42.688-24.634v-49.266Zm43.32 75 42.689-24.634 42.688 24.634v49.266l-42.688 24.634-42.689-24.634v-49.266Zm43.322 75 42.688-24.634 42.688 24.634v49.266l-42.688 24.634-42.688-24.634v-49.266Z"/><path d="m283.839 531.367 42.688-24.634 42.688 24.634v49.266l-42.688 24.634-42.688-24.634v-49.266Z" fill="#fff" fill-opacity=".25"/><path d="m-62.732 531.367 42.688-24.634 42.688 24.634v49.266l-42.688 24.634-42.688-24.634v-49.266Zm43.318 75 42.688-24.634 42.688 24.634v49.266l-42.688 24.634-42.688-24.634v-49.266Zm43.324-75 42.688-24.634 42.688 24.634v49.266l-42.688 24.634-42.688-24.634v-49.266Zm43.32 75 42.689-24.634 42.688 24.634v49.266l-42.688 24.634-42.688-24.634v-49.266Zm43.323 75 42.688-24.634 42.688 24.634v49.266l-42.688 24.634-42.688-24.634v-49.266Zm43.322-75 42.688-24.634 42.688 24.634v49.266l-42.688 24.634-42.688-24.634v-49.266Z"/><path d="m67.23 156.367 42.689-24.634 42.688 24.634v49.266l-42.688 24.634-42.688-24.634v-49.266Z" fill="#fff" fill-opacity=".25"/><path d="m110.553 231.367 42.688-24.634 42.688 24.634v49.266l-42.688 24.634-42.688-24.634v-49.266Zm43.322-75 42.688-24.634 42.688 24.634v49.266l-42.688 24.634-42.688-24.634v-49.266Zm43.32 75 42.689-24.634 42.688 24.634v49.266l-42.688 24.634-42.689-24.634v-49.266Zm43.322 75 42.688-24.634 42.688 24.634v49.266l-42.688 24.634-42.688-24.634v-49.266Zm43.322-75 42.688-24.634 42.688 24.634v49.266l-42.688 24.634-42.688-24.634v-49.266Zm-346.571 0 42.688-24.634 42.688 24.634v49.266l-42.688 24.634-42.688-24.634v-49.266Zm43.318 75 42.688-24.634 42.688 24.634v49.266l-42.688 24.634-42.688-24.634v-49.266Zm43.324-75 42.688-24.634 42.688 24.634v49.266l-42.688 24.634-42.688-24.634v-49.266Zm43.32 75 42.689-24.634 42.688 24.634v49.266l-42.688 24.634-42.688-24.634v-49.266Zm43.323 75 42.688-24.634 42.688 24.634v49.266l-42.688 24.634-42.688-24.634v-49.266Zm43.322-75 42.688-24.634 42.688 24.634v49.266l-42.688 24.634-42.688-24.634v-49.266Zm173.286 0 42.688-24.634 42.688 24.634v49.266l-42.688 24.634-42.688-24.634v-49.266Zm43.323 75 42.688-24.634 42.688 24.634v49.266l-42.688 24.634-42.688-24.634v-49.266Zm43.319-75 42.688-24.634 42.688 24.634v49.266l-42.688 24.634-42.688-24.634v-49.266Zm43.323 75 42.688-24.634 42.688 24.634v49.266l-42.688 24.634-42.688-24.634v-49.266Zm43.322 75 42.688-24.634 42.688 24.634v49.266l-42.688 24.634-42.688-24.634v-49.266Zm43.32-75 42.688-24.634 42.688 24.634v49.266l-42.688 24.634-42.688-24.634v-49.266Zm-346.573 0 42.689-24.634 42.688 24.634v49.266l-42.688 24.634-42.689-24.634v-49.266Zm43.322 75 42.688-24.634 42.688 24.634v49.266l-42.688 24.634-42.688-24.634v-49.266Zm43.322-75 42.688-24.634 42.688 24.634v49.266l-42.688 24.634-42.688-24.634v-49.266Zm43.322 75 42.688-24.634 42.688 24.634v49.266l-42.688 24.634-42.688-24.634v-49.266Zm43.323 75 42.688-24.634 42.688 24.634v49.266l-42.688 24.634-42.688-24.634v-49.266Zm43.319-75 42.688-24.634 42.688 24.634v49.266l-42.688 24.634-42.688-24.634v-49.266Z"/></g><mask id="e" style="mask-type:alpha" maskUnits="userSpaceOnUse" x="0" y="0" width="1216" height="726"><path d="M1216 0H0v725.8h1216V0Z" fill="url(#d)"/></mask><g mask="url(#e)" stroke="#000"><path d="m717.133 231.367 42.666-24.634 42.666 24.634v49.266l-42.666 24.634-42.666-24.634v-49.266Zm43.299 75 42.667-24.634 42.666 24.634v49.266l-42.666 24.634-42.667-24.634v-49.266Zm43.3-75 42.666-24.634 42.667 24.634v49.266l-42.667 24.634-42.666-24.634v-49.266Zm43.3 75 42.666-24.634 42.667 24.634v49.266l-42.667 24.634-42.666-24.634v-49.266Zm43.3 75 42.666-24.634 42.666 24.634v49.266l-42.666 24.634-42.666-24.634v-49.266Zm43.3-75 42.666-24.634 42.662 24.634v49.266l-42.662 24.634-42.666-24.634v-49.266Zm-346.399 0 42.666-24.634 42.667 24.634v49.266l-42.667 24.634-42.666-24.634v-49.266Zm43.3 75 42.666-24.634 42.666 24.634v49.266l-42.666 24.634-42.666-24.634v-49.266Zm43.3-75 42.666-24.634 42.666 24.634v49.266l-42.666 24.634-42.666-24.634v-49.266Zm43.3 75 42.666-24.634 42.666 24.634v49.266l-42.666 24.634-42.666-24.634v-49.266Zm43.299 75 42.667-24.634 42.666 24.634v49.266l-42.666 24.634-42.667-24.634v-49.266Zm43.3-75 42.666-24.634 42.667 24.634v49.266l-42.667 24.634-42.666-24.634v-49.266Zm173.199 0 42.669-24.634 42.66 24.634v49.266l-42.66 24.634-42.669-24.634v-49.266Zm43.299 75 42.67-24.634 42.66 24.634v49.266l-42.66 24.634-42.67-24.634v-49.266Zm43.3-75 42.67-24.634 42.66 24.634v49.266l-42.66 24.634-42.67-24.634v-49.266Zm43.3 75 42.67-24.634 42.66 24.634v49.266l-42.66 24.634-42.67-24.634v-49.266Zm43.3 75 42.67-24.634 42.66 24.634v49.266l-42.66 24.634-42.67-24.634v-49.266Zm43.3-75 42.67-24.634 42.66 24.634v49.266l-42.66 24.634-42.67-24.634v-49.266Zm-346.398 0 42.666-24.634 42.667 24.634v49.266l-42.667 24.634-42.666-24.634v-49.266Zm43.3 75 42.666-24.634 42.666 24.634v49.266l-42.666 24.634-42.666-24.634v-49.266Zm43.3-75 42.666-24.634 42.662 24.634v49.266l-42.662 24.634-42.666-24.634v-49.266Zm43.299 75 42.669-24.634 42.66 24.634v49.266l-42.66 24.634-42.669-24.634v-49.266Zm43.299 75 42.67-24.634 42.66 24.634v49.266l-42.66 24.634-42.67-24.634v-49.266Zm43.3-75 42.67-24.634 42.66 24.634v49.266l-42.66 24.634-42.67-24.634v-49.266Zm-86.599-450 42.669-24.634 42.66 24.634v49.266l-42.66 24.634-42.669-24.634V81.367Zm43.299 75 42.67-24.634 42.66 24.634v49.266l-42.66 24.634-42.67-24.634v-49.266Zm43.3-75 42.67-24.634 42.66 24.634v49.266l-42.66 24.634-42.67-24.634V81.367Zm43.3 75 42.67-24.634 42.66 24.634v49.266l-42.66 24.634-42.67-24.634v-49.266Zm43.3 75 42.67-24.634 42.66 24.634v49.266l-42.66 24.634-42.67-24.634v-49.266Zm43.3-75 42.67-24.634 42.66 24.634v49.266l-42.66 24.634-42.67-24.634v-49.266Zm-346.398 0 42.666-24.634 42.667 24.634v49.266l-42.667 24.634-42.666-24.634v-49.266Zm43.3 75 42.666-24.634 42.666 24.634v49.266l-42.666 24.634-42.666-24.634v-49.266Zm43.3-75 42.666-24.634 42.662 24.634v49.266l-42.662 24.634-42.666-24.634v-49.266Zm43.299 75 42.669-24.634 42.66 24.634v49.266l-42.66 24.634-42.669-24.634v-49.266Zm43.299 75 42.67-24.634 42.66 24.634v49.266l-42.66 24.634-42.67-24.634v-49.266Zm43.3-75 42.67-24.634 42.66 24.634v49.266l-42.66 24.634-42.67-24.634v-49.266Zm43.3 75 42.67-24.634 42.66 24.634v49.266l-42.66 24.634-42.67-24.634v-49.266Zm43.3 75 42.67-24.634 42.66 24.634v49.266l-42.66 24.634-42.67-24.634v-49.266Zm43.3-75 42.67-24.634 42.66 24.634v49.266l-42.66 24.634-42.67-24.634v-49.266Zm-952.907-300 42.688-24.634 42.688 24.634v49.266l-42.688 24.634-42.688-24.634V6.367Zm86.644 0 42.688-24.634 42.688 24.634v49.266l-42.688 24.634-42.688-24.634V6.367Zm43.319 75 42.688-24.634 42.688 24.634v49.266l-42.688 24.634-42.688-24.634V81.367Zm43.324-75 42.688-24.634 42.688 24.634v49.266l-42.688 24.634-42.688-24.634V6.367Zm-346.573 0 42.688-24.634 42.688 24.634v49.266l-42.688 24.634-42.688-24.634V6.367Zm43.321 75 42.688-24.634 42.688 24.634v49.266l-42.688 24.634-42.688-24.634V81.367Zm43.322-75 42.688-24.634 42.688 24.634v49.266l-42.688 24.634-42.688-24.634V6.367Zm43.321 75 42.688-24.634 42.688 24.634v49.266l-42.688 24.634-42.688-24.634V81.367Zm43.322 75 42.688-24.634 42.688 24.634v49.266l-42.688 24.634-42.688-24.634v-49.266Zm43.322-75 42.688-24.634 42.688 24.634v49.266l-42.688 24.634-42.688-24.634V81.367Zm173.285 0 42.688-24.634 42.688 24.634v49.266l-42.688 24.634-42.688-24.634V81.367Zm43.322 75 42.688-24.634 42.688 24.634v49.266l-42.688 24.634-42.688-24.634v-49.266Zm43.323-75 42.688-24.634 42.688 24.634v49.266l-42.688 24.634-42.688-24.634V81.367Zm43.32 75 42.688-24.634 42.688 24.634v49.266l-42.688 24.634-42.688-24.634v-49.266Zm43.321 75 42.688-24.634 42.688 24.634v49.266l-42.688 24.634-42.688-24.634v-49.266Zm43.322-75 42.688-24.634 42.688 24.634v49.266l-42.688 24.634-42.688-24.634v-49.266Zm-346.571 0 42.688-24.634 42.688 24.634v49.266l-42.688 24.634-42.688-24.634v-49.266Zm43.319 75 42.688-24.634 42.688 24.634v49.266l-42.688 24.634-42.688-24.634v-49.266Zm43.324-75 42.688-24.634 42.688 24.634v49.266l-42.688 24.634-42.688-24.634v-49.266Zm43.32 75 42.688-24.634 42.688 24.634v49.266l-42.688 24.634-42.688-24.634v-49.266Zm43.322 75 42.688-24.634 42.688 24.634v49.266l-42.688 24.634-42.688-24.634v-49.266Zm43.323-75 42.688-24.634 42.688 24.634v49.266l-42.688 24.634-42.688-24.634v-49.266Zm-43.323-225 42.688-24.634 42.688 24.634v49.266L543.14 80.267l-42.688-24.634V6.367Zm259.931 0 42.688-24.634 42.688 24.634v49.266l-42.688 24.634-42.688-24.634V6.367Zm86.643 0 42.688-24.634 42.688 24.634v49.266l-42.688 24.634-42.688-24.634V6.367Zm43.322 75 42.688-24.634 42.688 24.634v49.266l-42.688 24.634-42.688-24.634V81.367Zm43.319-75 42.688-24.634 42.685 24.634v49.266l-42.685 24.634-42.688-24.634V6.367Zm-346.572 0 42.688-24.634 42.688 24.634v49.266l-42.688 24.634-42.688-24.634V6.367Zm43.321 75 42.688-24.634 42.688 24.634v49.266l-42.688 24.634-42.688-24.634V81.367Zm43.322-75 42.688-24.634 42.688 24.634v49.266l-42.688 24.634-42.688-24.634V6.367Zm43.323 75 42.688-24.634 42.688 24.634v49.266l-42.688 24.634-42.688-24.634V81.367Zm43.322 75 42.688-24.634 42.688 24.634v49.266l-42.688 24.634-42.688-24.634v-49.266Zm43.319-75 42.688-24.634 42.688 24.634v49.266l-42.688 24.634-42.688-24.634V81.367Zm-476.469 525 42.666-24.634 42.667 24.634v49.266l-42.667 24.634-42.666-24.634v-49.266Zm43.3 75 42.666-24.634 42.666 24.634v49.266l-42.666 24.634-42.666-24.634v-49.266Zm43.3-75 42.666-24.634 42.666 24.634v49.266l-42.666 24.634-42.666-24.634v-49.266Zm43.3 75 42.666-24.634 42.666 24.634v49.266l-42.666 24.634-42.666-24.634v-49.266Zm86.599 0 42.666-24.634 42.667 24.634v49.266l-42.667 24.634-42.666-24.634v-49.266Zm-346.398 0L240 656.733l42.666 24.634v49.266L240 755.267l-42.666-24.634v-49.266Zm86.599 0 42.667-24.634 42.666 24.634v49.266L326.6 755.267l-42.667-24.634v-49.266Zm303.099-225 42.666-24.634 42.667 24.634v49.266l-42.667 24.634-42.666-24.634v-49.266Zm43.3 75 42.666-24.634 42.666 24.634v49.266l-42.666 24.634-42.666-24.634v-49.266Zm43.3-75 42.666-24.634 42.666 24.634v49.266l-42.666 24.634-42.666-24.634v-49.266Zm43.299 75 42.667-24.634 42.666 24.634v49.266l-42.666 24.634-42.667-24.634v-49.266Zm43.3 75 42.666-24.634 42.667 24.634v49.266l-42.667 24.634-42.666-24.634v-49.266Zm43.3-75 42.666-24.634 42.667 24.634v49.266l-42.667 24.634-42.666-24.634v-49.266Zm-346.398 0 42.666-24.634 42.666 24.634v49.266l-42.666 24.634-42.666-24.634v-49.266Zm43.299 75 42.667-24.634 42.666 24.634v49.266l-42.666 24.634-42.667-24.634v-49.266Zm43.3-75 42.666-24.634 42.667 24.634v49.266l-42.667 24.634-42.666-24.634v-49.266Zm43.3 75 42.666-24.634 42.667 24.634v49.266l-42.667 24.634-42.666-24.634v-49.266Zm43.3 75 42.666-24.634 42.666 24.634v49.266l-42.666 24.634-42.666-24.634v-49.266Zm43.3-75 42.666-24.634 42.666 24.634v49.266l-42.666 24.634-42.666-24.634v-49.266Zm173.199 0 42.666-24.634 42.666 24.634v49.266l-42.666 24.634-42.666-24.634v-49.266Zm43.3 75 42.666-24.634 42.666 24.634v49.266l-42.666 24.634-42.666-24.634v-49.266Zm43.299-75 42.667-24.634 42.663 24.634v49.266l-42.663 24.634-42.667-24.634v-49.266Zm43.3 75 42.67-24.634 42.66 24.634v49.266l-42.66 24.634-42.67-24.634v-49.266Zm86.6 0 42.67-24.634 42.66 24.634v49.266L1106 755.267l-42.67-24.634v-49.266Zm-346.399 0 42.667-24.634 42.666 24.634v49.266l-42.666 24.634-42.667-24.634v-49.266Zm86.6 0 42.666-24.634 42.667 24.634v49.266l-42.667 24.634-42.666-24.634v-49.266Zm-866.263-300 42.688-24.634 42.688 24.634v49.266l-42.688 24.634-42.688-24.634v-49.266Zm43.318 75 42.688-24.634 42.688 24.634v49.266l-42.688 24.634-42.688-24.634v-49.266Zm43.324-75 42.688-24.634 42.688 24.634v49.266l-42.688 24.634-42.688-24.634v-49.266Zm43.32 75 42.689-24.634 42.688 24.634v49.266l-42.688 24.634-42.688-24.634v-49.266Zm43.323 75 42.688-24.634 42.688 24.634v49.266l-42.688 24.634-42.688-24.634v-49.266Zm43.322-75 42.688-24.634 42.688 24.634v49.266l-42.688 24.634-42.688-24.634v-49.266Zm43.32 75 42.689-24.634 42.688 24.634v49.266l-42.688 24.634-42.689-24.634v-49.266Zm43.322 75 42.688-24.634 42.688 24.634v49.266l-42.688 24.634-42.688-24.634v-49.266Zm43.322-75 42.688-24.634 42.688 24.634v49.266l-42.688 24.634-42.688-24.634v-49.266Zm-346.571 0 42.688-24.634 42.688 24.634v49.266l-42.688 24.634-42.688-24.634v-49.266Zm43.318 75 42.688-24.634 42.688 24.634v49.266l-42.688 24.634-42.688-24.634v-49.266Zm43.324-75 42.688-24.634 42.688 24.634v49.266l-42.688 24.634-42.688-24.634v-49.266Zm43.32 75 42.689-24.634 42.688 24.634v49.266l-42.688 24.634-42.688-24.634v-49.266Zm43.323 75 42.688-24.634 42.688 24.634v49.266l-42.688 24.634-42.688-24.634v-49.266Zm43.322-75 42.688-24.634 42.688 24.634v49.266l-42.688 24.634-42.688-24.634v-49.266Zm-86.645-450 42.689-24.634 42.688 24.634v49.266l-42.688 24.634-42.688-24.634v-49.266Zm43.323 75 42.688-24.634 42.688 24.634v49.266l-42.688 24.634-42.688-24.634v-49.266Zm43.322-75 42.688-24.634 42.688 24.634v49.266l-42.688 24.634-42.688-24.634v-49.266Zm43.32 75 42.689-24.634 42.688 24.634v49.266l-42.688 24.634-42.689-24.634v-49.266Zm43.322 75 42.688-24.634 42.688 24.634v49.266l-42.688 24.634-42.688-24.634v-49.266Zm43.322-75 42.688-24.634 42.688 24.634v49.266l-42.688 24.634-42.688-24.634v-49.266Zm-346.571 0 42.688-24.634 42.688 24.634v49.266l-42.688 24.634-42.688-24.634v-49.266Zm43.318 75 42.688-24.634 42.688 24.634v49.266l-42.688 24.634-42.688-24.634v-49.266Zm43.324-75 42.688-24.634 42.688 24.634v49.266l-42.688 24.634-42.688-24.634v-49.266Zm43.32 75 42.689-24.634 42.688 24.634v49.266l-42.688 24.634-42.688-24.634v-49.266Zm43.323 75 42.688-24.634 42.688 24.634v49.266l-42.688 24.634-42.688-24.634v-49.266Zm43.322-75 42.688-24.634 42.688 24.634v49.266l-42.688 24.634-42.688-24.634v-49.266Zm173.286 0 42.688-24.634 42.688 24.634v49.266l-42.688 24.634-42.688-24.634v-49.266Zm43.323 75 42.688-24.634 42.688 24.634v49.266l-42.688 24.634-42.688-24.634v-49.266Zm43.319-75 42.688-24.634 42.688 24.634v49.266l-42.688 24.634-42.688-24.634v-49.266Zm43.323 75 42.688-24.634 42.688 24.634v49.266l-42.688 24.634-42.688-24.634v-49.266Zm43.322 75 42.688-24.634 42.688 24.634v49.266l-42.688 24.634-42.688-24.634v-49.266Zm43.32-75 42.688-24.634 42.688 24.634v49.266l-42.688 24.634-42.688-24.634v-49.266Zm-346.573 0 42.689-24.634 42.688 24.634v49.266l-42.688 24.634-42.689-24.634v-49.266Zm43.322 75 42.688-24.634 42.688 24.634v49.266l-42.688 24.634-42.688-24.634v-49.266Zm43.322-75 42.688-24.634 42.688 24.634v49.266l-42.688 24.634-42.688-24.634v-49.266Zm43.322 75 42.688-24.634 42.688 24.634v49.266l-42.688 24.634-42.688-24.634v-49.266Zm43.323 75 42.688-24.634 42.688 24.634v49.266l-42.688 24.634-42.688-24.634v-49.266Zm43.319-75 42.688-24.634 42.688 24.634v49.266l-42.688 24.634-42.688-24.634v-49.266Z"/></g></g><defs><radialGradient id="b" cx="0" cy="0" r="1" gradientUnits="userSpaceOnUse" gradientTransform="matrix(0 447.374 -749.527 0 608 362.9)"><stop stop-color="#D9D9D9" stop-opacity=".1"/><stop offset=".802" stop-color="#D9D9D9" stop-opacity="0"/></radialGradient><radialGradient id="d" cx="0" cy="0" r="1" gradientUnits="userSpaceOnUse" gradientTransform="matrix(0 447.374 -749.527 0 608 362.9)"><stop stop-color="#D9D9D9" stop-opacity=".1"/><stop offset=".802" stop-color="#D9D9D9" stop-opacity="0"/></radialGradient><clipPath id="a"><path fill="#fff" d="M0 0h1216v726H0z"/></clipPath></defs></svg>