<svg width="26" height="26" fill="none" xmlns="http://www.w3.org/2000/svg"><path fill-rule="evenodd" clip-rule="evenodd" d="M20.428 0c.616 0 1.115.499 1.115 1.114v20.429l2.451-3.269a1.114 1.114 0 0 1 1.783 1.337l-4.457 5.943a1.114 1.114 0 0 1-2.006-.668V1.114c0-.615.5-1.114 1.114-1.114ZM5.944 4.086c0-.616.499-1.115 1.114-1.115h7.429a1.114 1.114 0 1 1 0 2.229h-7.43a1.114 1.114 0 0 1-1.114-1.114ZM2.97 11.514c0-.615.5-1.114 1.115-1.114h10.4a1.114 1.114 0 0 1 0 2.229h-10.4a1.114 1.114 0 0 1-1.115-1.115ZM0 18.943c0-.616.499-1.115 1.114-1.115h13.372a1.114 1.114 0 0 1 0 2.23H1.114A1.114 1.114 0 0 1 0 18.942Z" fill="#fff" fill-opacity=".7"/></svg>