<svg width="22" height="12" fill="none" xmlns="http://www.w3.org/2000/svg"><path d="M19.863 3.598c-.06.84-.848 1.753-1.916 1.68-.837-.057-1.696-.87-1.615-1.92.06-.78.786-1.694 1.855-1.62 1.068.072 1.735 1.02 1.676 1.86Zm-1.856 3.42L14.835 9.36c0 .18-.04.396-.06.48-.429 1.74-1.676 2.16-2.454 2.16-1.316-.06-2.214-.78-2.573-2.04L3.963 7.563c-.48.308-1.085.433-1.704.391-1.175-.08-2.42-1.19-2.242-2.879.13-1.227 1.296-2.282 2.59-2.193 1.294.088 2.152.97 2.35 1.97l5.868 2.408c.48-.3.778-.42 1.497-.42l2.277-3.303c0-.05-.007-.258 0-.356.127-1.884 1.792-3.304 3.716-3.173 1.924.132 3.343 1.73 3.283 3.65-.06 1.98-1.736 3.421-3.59 3.36ZM4.276 4.567c-.287-.596-.824-1.045-1.67-1.102-.8-.056-1.856.525-2.001 1.61-.142 1.056.548 2.068 1.655 2.248.194.032.587.042 1.023-.074L1.84 6.65c-.576-.294-.745-.982-.42-1.8.441-.688 1.123-1.113 2.204-.55l.652.265Zm11.517-1.258c-.1 1.463.99 2.435 2.094 2.51 1.078.074 2.475-.697 2.574-2.16.06-1.14-.72-2.419-2.214-2.521-1.556-.06-2.454 1.2-2.454 2.171Zm-1.616 6.353c.163-1.198-.875-2.221-1.855-2.221-.16-.011-.54 0-.779.12l1.404.56c.704.434.87 1.36.478 2.03-.44.69-1.367.896-2.071.463l-.888-.352c.359.72 1.23 1.14 1.855 1.14.626 0 1.672-.4 1.856-1.74Z" fill="#fff"/></svg>